#!OML:ASF E:\acrobat2\Project_11_07_03\Capture day 1\Session 1\Acrobat.ASF
:FULLY-SPECIFIED
:DEGREES
449
root 11.6304 17.8996 26.2182 -175.658 -52.3397 -178.439
lowerback -4.42989 -1.43462 -4.17799
upperback 0.409407 -1.69409 -3.2434
thorax 2.92902 -0.926282 -1.12155
lowerneck 6.65319 11.5827 6.50983
upperneck -8.84828 15.8121 -4.21246
head -3.14695 7.80103 -3.12957
rclavicle -2.82274e-014 1.11319e-014
rhumerus -63.6428 -23.8332 -53.0596
rradius 32.9211
rwrist -16.2381
rhand -8.38315 -43.0157
rfingers 7.12502
rthumb 17.5401 -72.2444
lclavicle -2.82274e-014 1.11319e-014
lhumerus 279.336 -85.9165 -199.189
lradius 61.8851
lwrist 4.6481
lhand -13.1133 -23.0221
lfingers 7.12502
lthumb 12.9839 6.55386
rfemur -3.34263 17.5793 3.94644
rtibia -2.81027
rfoot -29.6439 -34.3673
rtoes 22.6609
lfemur 8.55657 -2.00192 -9.20337
ltibia 3.85782
lfoot -27.0952 1.41601
ltoes 26.8165
450
root 11.6331 17.8983 26.2139 -175.626 -52.5912 -178.328
lowerback -4.5762 -1.48642 -4.04293
upperback 0.366646 -1.75982 -3.10677
thorax 2.96809 -0.954992 -1.06388
lowerneck 6.30166 11.4791 6.15342
upperneck -8.59185 15.6388 -3.91422
head -3.05581 7.71705 -2.93263
rclavicle 6.34123e-014 -2.54444e-014
rhumerus -62.5601 -23.1454 -54.6727
rradius 33.6023
rwrist -15.5103
rhand -7.85244 -43.1156
rfingers 7.12502
rthumb 18.0508 -72.298
lclavicle 6.34123e-014 -2.54444e-014
lhumerus 296.168 -84.6751 -216.721
lradius 60.4839
lwrist 5.85033
lhand -12.5926 -22.0423
lfingers 7.12502
lthumb 13.4859 7.50109
rfemur -3.33002 17.461 4.06963
rtibia -2.76182
rfoot -29.0134 -35.0386
rtoes 19.8347
lfemur 8.47979 -2.25248 -9.10149
ltibia 3.63698
lfoot -27.0503 1.52049
ltoes 26.3463
451
root 11.6427 17.9027 26.1758 -175.826 -52.989 -178.193
lowerback -4.66413 -1.56295 -4.30877
upperback 0.426709 -1.83686 -2.91482
thorax 3.09561 -0.998031 -0.727686
lowerneck 6.66465 11.4836 6.2894
upperneck -8.97654 15.6504 -4.28933
head -3.21426 7.72807 -3.12759
rclavicle 6.75868e-015 -4.45278e-014
rhumerus -61.5133 -22.3924 -56.3086
rradius 34.2189
rwrist -15.0249
rhand -7.49564 -42.7977
rfingers 7.12502
rthumb 18.3941 -71.948
lclavicle 6.75868e-015 -4.45278e-014
lhumerus 307.69 -82.8053 -228.893
lradius 58.8091
lwrist 6.19738
lhand -12.0421 -21.3936
lfingers 7.12502
lthumb 14.0164 8.11387
rfemur -2.55993 19.5269 4.59387
rtibia -3.39003
rfoot -32.0342 -35.9515
rtoes 22.2378
lfemur 8.6213 -1.9576 -8.60225
ltibia 3.49773
lfoot -26.3787 1.04143
ltoes 26.7335
452
root 11.6456 17.9036 26.1727 -175.873 -53.0079 -178.152
lowerback -4.64979 -1.45216 -4.15418
upperback 0.399321 -1.69858 -2.90013
thorax 3.05221 -0.925288 -0.786994
lowerneck 6.94546 11.3983 6.68905
upperneck -9.13319 15.5671 -4.61986
head -3.26789 7.6871 -3.32752
rclavicle 7.39479e-014 -1.59028e-014
rhumerus -60.6509 -21.7772 -57.8144
rradius 34.7588
rwrist -14.4441
rhand -7.15145 -41.9583
rfingers 7.12502
rthumb 18.7252 -71.077
lclavicle 7.39479e-014 -1.59028e-014
lhumerus 314.125 -80.7988 -235.947
lradius 56.661
lwrist 5.79821
lhand -11.9698 -20.6841
lfingers 7.12502
lthumb 14.0861 8.81854
rfemur -2.49711 19.8589 4.66403
rtibia -3.48043
rfoot -32.5025 -36.0435
rtoes 23.0144
lfemur 8.68417 -1.91444 -8.52723
ltibia 3.38903
lfoot -26.2664 0.974521
ltoes 26.6619
453
root 11.6452 17.9016 26.1778 -175.881 -52.9578 -178.051
lowerback -4.68246 -1.33297 -3.81068
upperback 0.315883 -1.5586 -2.89799
thorax 2.97239 -0.847748 -0.964795
lowerneck 6.91508 11.2863 6.85146
upperneck -9.01745 15.4235 -4.7161
head -3.21054 7.61843 -3.37151
rclavicle 2.98177e-015 1.59028e-014
rhumerus -59.9141 -21.1369 -59.2178
rradius 35.4648
rwrist -13.4665
rhand -6.7611 -41.4986
rfingers 7.12502
rthumb 19.1006 -70.5807
lclavicle 2.98177e-015 1.59028e-014
lhumerus 318.6 -78.5901 -241.071
lradius 54.5272
lwrist 5.7146
lhand -11.7035 -19.7893
lfingers 7.12502
lthumb 14.3427 9.69523
rfemur -2.69262 19.6397 4.6384
rtibia -3.35364
rfoot -32.0929 -36.01
rtoes 22.4876
lfemur 8.72192 -2.40618 -8.64975
ltibia 3.1627
lfoot -26.6964 1.2757
ltoes 26.6414
454
root 11.6444 17.902 26.1758 -175.894 -53.0156 -177.955
lowerback -4.73607 -1.29807 -3.61822
upperback 0.262878 -1.51976 -2.79509
thorax 2.94494 -0.823355 -0.96333
lowerneck 6.58402 11.1784 6.45517
upperneck -8.78368 15.2438 -4.38226
head -3.13629 7.52979 -3.15797
rclavicle -3.03147e-014 -1.27222e-014
rhumerus -59.139 -20.2701 -60.5715
rradius 36.4096
rwrist -12.4716
rhand -6.36085 -41.4216
rfingers 7.12502
rthumb 19.4854 -70.4652
lclavicle -3.03147e-014 -1.27222e-014
lhumerus 322.415 -76.1784 -245.556
lradius 52.4883
lwrist 5.86607
lhand -11.5693 -18.9875
lfingers 7.12502
lthumb 14.472 10.4878
rfemur -2.71607 19.6718 4.70121
rtibia -3.34829
rfoot -32.1614 -36.0858
rtoes 21.9428
lfemur 8.74886 -2.90524 -8.72962
ltibia 2.97465
lfoot -27.0327 1.51255
ltoes 27.846
